<svg width="41" height="41" viewBox="0 0 41 41" fill="none" xmlns="http://www.w3.org/2000/svg">
<circle cx="20.9961" cy="20.9519" r="20" fill="white"/>
<path d="M20.9929 18.55C19.0833 18.55 17.5248 19.9886 17.5248 21.7514C17.5248 23.5142 19.0833 24.9527 20.9929 24.9527C22.9026 24.9527 24.461 23.5142 24.461 21.7514C24.461 19.9886 22.9026 18.55 20.9929 18.55ZM31.3945 21.7514C31.3945 20.4257 31.4076 19.112 31.3269 17.7887C31.2462 16.2517 30.8664 14.8875 29.6488 13.7636C28.4286 12.6372 26.9534 12.289 25.2883 12.2145C23.8522 12.1401 22.4291 12.1521 20.9955 12.1521C19.5594 12.1521 18.1362 12.1401 16.7027 12.2145C15.0376 12.289 13.5598 12.6396 12.3422 13.7636C11.122 14.8899 10.7448 16.2517 10.6641 17.7887C10.5835 19.1144 10.5965 20.4281 10.5965 21.7514C10.5965 23.0747 10.5835 24.3907 10.6641 25.714C10.7448 27.2511 11.1246 28.6152 12.3422 29.7392C13.5624 30.8655 15.0376 31.2138 16.7027 31.2882C18.1388 31.3627 19.562 31.3507 20.9955 31.3507C22.4317 31.3507 23.8548 31.3627 25.2883 31.2882C26.9534 31.2138 28.4312 30.8631 29.6488 29.7392C30.869 28.6128 31.2462 27.2511 31.3269 25.714C31.4102 24.3907 31.3945 23.0771 31.3945 21.7514ZM20.9929 26.6771C18.04 26.6771 15.6568 24.4772 15.6568 21.7514C15.6568 19.0255 18.04 16.8256 20.9929 16.8256C23.9458 16.8256 26.329 19.0255 26.329 21.7514C26.329 24.4772 23.9458 26.6771 20.9929 26.6771ZM26.5476 17.7743C25.8581 17.7743 25.3013 17.2603 25.3013 16.6239C25.3013 15.9875 25.8581 15.4735 26.5476 15.4735C27.237 15.4735 27.7938 15.9875 27.7938 16.6239C27.794 16.775 27.7619 16.9247 27.6993 17.0644C27.6368 17.204 27.545 17.3309 27.4292 17.4378C27.3135 17.5446 27.176 17.6294 27.0247 17.6871C26.8734 17.7448 26.7113 17.7745 26.5476 17.7743Z" fill="#04091F"/>
</svg>
