<svg width="85" height="88" viewBox="0 0 85 88" fill="none" xmlns="http://www.w3.org/2000/svg">
<path d="M80.7456 29.9654L79.6104 30.4007L80.0541 31.558L81.2026 31.0921L80.7456 29.9654ZM83 29.051L83.457 30.1777L84.5635 29.7289L84.1348 28.6145L83 29.051ZM82.7382 59.7932L83.8654 60.249L84.3201 59.1245L83.1967 58.6671L82.7382 59.7932ZM80.4854 58.876L80.9439 57.7499L79.8149 57.2903L79.3582 58.4204L80.4854 58.876ZM43.8578 3.37893C21.389 3.37893 3.15139 21.6166 3.15139 44.0853H5.58307C5.58307 22.9595 22.732 5.81061 43.8578 5.81061V3.37893ZM81.8809 29.5302C76.0205 14.2448 61.2014 3.37893 43.8578 3.37893V5.81061C60.1603 5.81061 74.0982 16.0235 79.6104 30.4007L81.8809 29.5302ZM81.2026 31.0921L83.457 30.1777L82.543 27.9244L80.2886 28.8387L81.2026 31.0921ZM43.8578 3.37893C61.1805 3.37893 75.9917 14.2198 81.8652 29.4876L84.1348 28.6145C77.9123 12.4399 62.2205 0.947244 43.8578 0.947244V3.37893ZM3.15139 44.0853C3.15139 21.6166 21.389 3.37893 43.8578 3.37893V0.947244C20.046 0.947244 0.719705 20.2736 0.719705 44.0853H3.15139ZM43.8578 84.7917C21.389 84.7917 3.15139 66.5541 3.15139 44.0853H0.719705C0.719705 67.897 20.046 87.2234 43.8578 87.2234V84.7917ZM81.6111 59.3374C75.5729 74.2687 60.9361 84.7917 43.8578 84.7917V87.2234C61.9602 87.2234 77.4683 76.0678 83.8654 60.249L81.6111 59.3374ZM83.1967 58.6671L80.9439 57.7499L80.0269 60.0021L82.2798 60.9193L83.1967 58.6671ZM43.8578 84.7917C60.9424 84.7917 75.5778 74.2618 81.6126 59.3316L79.3582 58.4204C73.6821 72.4629 59.9181 82.36 43.8578 82.36V84.7917ZM3.15139 44.0853C3.15139 66.5541 21.389 84.7917 43.8578 84.7917V82.36C22.732 82.36 5.58307 65.2111 5.58307 44.0853H3.15139Z" fill="black"/>
<circle cx="43.8583" cy="44.0853" r="21.2772" stroke="black" stroke-width="2.43168"/>
<path d="M63.6523 52.0127L81.6225 59.4536" stroke="black" stroke-width="2.43168"/>
<path d="M24.2822 49.7027L33.7658 40.2921L35.7111 42.2375L43.9059 33.9697L55.3348 45.5689L57.6692 43.4533L64.3077 50.1647L63.0919 51.8669L57.5233 46.6145L55.3105 48.6814L43.9059 37.2525L35.7355 45.3743L33.8387 43.4776L25.036 52.1101L24.2822 49.7027Z" fill="black"/>
<path d="M26.3486 54.2983L34.0084 46.5413L31.6011 52.1098L43.7595 40.073V47.0276L41.2305 49.3134L45.3644 47.4896L55.2127 57.338L54.0455 52.1098L59.8572 58.1404C46.6289 67.6483 35.0054 68.621 26.3486 54.2983Z" fill="black"/>
<path d="M66.9845 60.1106L71.3372 63.6609L69.1487 66.3357L68.1274 65.5089L69.5378 63.7824L69.5864 64.2201L68.4678 63.2961L68.9055 63.2475L67.5924 64.8524L66.5711 64.0256L67.8842 62.4207L67.9328 62.8584L66.0361 61.3021L66.9845 60.1106Z" fill="black"/>
<path fill-rule="evenodd" clip-rule="evenodd" d="M66.9604 68.524L63.4588 64.147L62.2186 65.1683L63.4344 66.6759L61.0028 66.1166L59.4951 67.3325L62.2916 67.8188C62.17 68.0377 62.097 68.2808 62.0727 68.4997C62.0484 68.7185 62.0727 68.9617 62.1457 69.1806C62.2186 69.3994 62.3402 69.6183 62.5104 69.8371C62.7536 70.1289 63.0211 70.3235 63.3129 70.4207C63.6047 70.518 63.9208 70.518 64.2369 70.445C64.553 70.3721 64.8691 70.2019 65.1853 69.9587L66.9604 68.524ZM64.0667 67.7459L64.2612 67.6L65.0394 68.5483L64.8449 68.6942C64.626 68.8888 64.4315 68.986 64.2369 68.986C64.0667 69.0104 63.8965 68.9374 63.7749 68.7672C63.6776 68.6699 63.629 68.5727 63.629 68.4511C63.629 68.3538 63.6533 68.2322 63.7263 68.1106C63.7992 67.9891 63.9208 67.8675 64.0667 67.7459Z" fill="black"/>
<path fill-rule="evenodd" clip-rule="evenodd" d="M57.1351 68.6702C56.746 68.6702 56.3813 68.7675 56.0165 68.9377C55.6518 69.1079 55.3356 69.3267 55.0925 69.6185C54.825 69.886 54.6304 70.2021 54.5089 70.5669C54.3873 70.9073 54.3143 71.2721 54.3386 71.6612C54.3386 72.0502 54.4359 72.415 54.6061 72.7797C54.7763 73.1445 54.9952 73.4363 55.287 73.7038C55.5545 73.9713 55.8949 74.1658 56.2354 74.2874C56.5758 74.409 56.9405 74.4819 57.3296 74.4576C57.7187 74.4576 58.0834 74.3603 58.4482 74.1901C58.8129 74.0199 59.1291 73.801 59.3722 73.5092C59.6397 73.2418 59.8342 72.9256 59.9558 72.5609C60.0774 72.2204 60.1504 71.8557 60.1261 71.4666C60.1261 71.0776 60.0288 70.7128 59.8586 70.348C59.6883 69.9833 59.4695 69.6915 59.1777 69.424C58.9102 69.1565 58.5941 68.962 58.2293 68.8404C57.8889 68.7188 57.5241 68.6459 57.1351 68.6702ZM56.211 70.5669C56.3083 70.4453 56.4542 70.3237 56.6244 70.2508C56.7946 70.1535 56.9649 70.1292 57.1351 70.1292C57.3053 70.1292 57.4512 70.1535 57.6214 70.2264C57.7916 70.2994 57.9132 70.3967 58.0591 70.5426C58.205 70.6885 58.3023 70.8587 58.3996 71.0532C58.4968 71.2477 58.5455 71.4423 58.5698 71.6368C58.5941 71.8313 58.5941 72.0016 58.5455 72.1718C58.4968 72.342 58.4239 72.4879 58.3023 72.6095C58.205 72.7311 58.0591 72.8527 57.8889 72.9256C57.7187 72.9986 57.5485 73.0472 57.3783 73.0472C57.208 73.0472 57.0621 73.0229 56.8919 72.9499C56.7217 72.877 56.6001 72.7797 56.4542 72.6338C56.3083 72.4879 56.211 72.3177 56.1138 72.1231C56.0165 71.9286 55.9679 71.7341 55.9436 71.5395C55.9192 71.345 55.9192 71.1748 55.9679 71.0046C56.0165 70.8344 56.0895 70.6885 56.211 70.5669Z" fill="black"/>
<path d="M51.6653 70.7856L52.6866 76.3056L51.179 76.5731L48.5771 73.8739L49.1364 76.9621L47.6287 77.2296L46.6074 71.7097L48.1151 71.4422L50.717 74.1414L50.1577 71.0531L51.6653 70.7856Z" fill="black"/>
<path d="M44.0782 71.7342L43.9566 76.0383L45.2211 76.0626L45.1968 77.3757L41.1602 77.2784L41.1845 75.9653L42.4489 75.9896L42.5705 71.6855L44.0782 71.7342Z" fill="black"/>
<path fill-rule="evenodd" clip-rule="evenodd" d="M34.8861 76.208L36.6612 70.8826L35.2022 70.3477L34.5943 72.1958L33.7432 69.8613L31.8951 69.2534L32.9894 71.8553C32.7219 71.8796 32.5031 71.9526 32.2842 72.0499C32.0897 72.1714 31.8951 72.293 31.7492 72.4876C31.579 72.6821 31.4574 72.9009 31.3845 73.1441C31.2629 73.5089 31.2386 73.8493 31.3115 74.1411C31.3845 74.4572 31.5304 74.7247 31.7736 74.9436C32.0167 75.1624 32.3328 75.3569 32.7219 75.4785L34.8861 76.208ZM33.9631 73.3629L34.182 73.4359L33.8172 74.6031L33.5984 74.5301C33.3066 74.4329 33.112 74.3113 33.0148 74.1654C32.8932 74.0195 32.8689 73.8493 32.9418 73.6547C32.9661 73.5331 33.0391 73.4359 33.1363 73.3629C33.2336 73.29 33.3309 73.2657 33.4768 73.2657C33.6227 73.2657 33.7686 73.29 33.9631 73.3629Z" fill="black"/>
<path fill-rule="evenodd" clip-rule="evenodd" d="M26.3506 72.5853L31.3112 69.035L29.9009 68.1839L29.1227 68.7918L27.3233 67.6733L27.5178 66.7006L26.1074 65.8252L25.1348 71.8315L26.3506 72.5853ZM27.0799 69.0593L27.9796 69.6186L26.8367 70.4697L27.0799 69.0593Z" fill="black"/>
<path d="M24.9891 64.8524L20.9525 68.7431L19.8826 67.6488L20.7093 63.977L18.4479 66.1412L17.3779 65.0469L21.4145 61.1562L22.4845 62.2748L21.6577 65.9467L23.9192 63.7825L24.9891 64.8524Z" fill="black"/>
<path d="M19.0325 57.1679C19.227 57.5084 19.3486 57.8731 19.3729 58.2379C19.4215 58.6026 19.3729 58.9674 19.2756 59.3078C19.1784 59.6483 19.0082 59.9887 18.765 60.2805C18.5218 60.5723 18.23 60.8398 17.8653 61.0343C17.5005 61.2289 17.1358 61.3504 16.771 61.3991C16.4063 61.4477 16.0172 61.4234 15.6768 61.3261C15.312 61.2289 14.9959 61.0586 14.6798 60.8155C14.3636 60.5723 14.1205 60.2562 13.9016 59.8914C13.8044 59.6969 13.7071 59.478 13.6098 59.2592C13.5369 59.016 13.4639 58.7729 13.4153 58.5297C13.3667 58.2865 13.3667 58.019 13.391 57.7759L14.7527 57.8245C14.7284 58.0677 14.7284 58.3108 14.8013 58.5783C14.8743 58.8458 14.9473 59.0647 15.0445 59.2349C15.1418 59.4294 15.2634 59.5753 15.4093 59.6726C15.5552 59.7698 15.7011 59.8428 15.8713 59.8671C16.0415 59.8914 16.2117 59.8914 16.4063 59.8428C16.6008 59.7942 16.7953 59.7212 16.9899 59.5996C17.2087 59.478 17.4033 59.3321 17.5248 59.1862C17.6707 59.0403 17.768 58.8701 17.841 58.6999C17.9139 58.5297 17.9382 58.3595 17.9139 58.2136C17.9139 58.0434 17.8653 57.8975 17.768 57.7272C17.6951 57.6057 17.6221 57.5084 17.5248 57.4111C17.4276 57.3138 17.3303 57.2652 17.2087 57.2166C17.0871 57.1679 16.9899 57.1436 16.8683 57.1436C16.7467 57.1436 16.6494 57.1679 16.5522 57.2166L17.0871 58.1649L16.0901 58.7242L14.8013 56.4141L15.7497 55.8792C16.0172 55.7333 16.309 55.6603 16.6008 55.636C16.9169 55.636 17.2087 55.6846 17.5248 55.7819C17.8166 55.9035 18.1084 56.0494 18.3759 56.2925C18.6434 56.6087 18.8623 56.8761 19.0325 57.1679Z" fill="black"/>
<path d="M17.0381 53.1316L11.6398 54.6879L10.6914 51.4052L11.9559 51.0404L12.4665 52.8398L13.269 52.621L12.7827 50.8945L14.0471 50.5297L14.5335 52.2562L15.3359 52.0131L14.8253 50.2136L16.0897 49.8489L17.0381 53.1316Z" fill="black"/>
<path d="M15.6519 43.2345C15.6519 43.4776 15.6275 43.7208 15.5789 43.9397C15.5303 44.1585 15.4816 44.3774 15.4087 44.5719C15.3357 44.7664 15.2628 44.9366 15.1898 45.0825C15.1169 45.2284 15.0196 45.35 14.9467 45.4473L13.7065 44.6448C13.7795 44.5476 13.8524 44.426 13.9254 44.3044C13.9983 44.1828 14.0469 44.0612 14.1199 43.9397C14.1685 43.8181 14.2172 43.6722 14.2658 43.5506C14.2901 43.429 14.3144 43.2831 14.3144 43.1615C14.3144 43.0399 14.3144 42.9427 14.2901 42.8697C14.2658 42.7968 14.2172 42.7238 14.1685 42.6752C14.1199 42.6265 14.0469 42.6022 13.9497 42.6022C13.8524 42.6022 13.7795 42.6265 13.7308 42.6509C13.6579 42.6995 13.6092 42.7481 13.5363 42.8454C13.4633 42.9427 13.3904 43.0642 13.3174 43.2101C13.2445 43.356 13.1472 43.5506 13.05 43.7451C12.977 43.9153 12.8797 44.0612 12.7582 44.1828C12.6609 44.3044 12.5393 44.426 12.4177 44.5233C12.2961 44.6205 12.1502 44.6692 12.0287 44.7178C11.8827 44.7664 11.7368 44.7907 11.5666 44.7664C11.3478 44.7664 11.1289 44.6935 10.9344 44.5962C10.7399 44.4989 10.5453 44.353 10.3994 44.1585C10.2292 43.964 10.1076 43.7694 10.0347 43.502C9.9374 43.2588 9.91309 42.967 9.91309 42.6752C9.91309 42.4806 9.9374 42.2618 9.98604 42.0429C10.0347 41.8241 10.1076 41.6052 10.1806 41.4107C10.2535 41.2162 10.3508 41.0216 10.4481 40.8757L11.6396 41.5323C11.5666 41.6539 11.4937 41.7755 11.445 41.9214C11.3964 42.0429 11.3478 42.1888 11.3235 42.3104C11.2991 42.432 11.2748 42.5779 11.2748 42.6752C11.2748 42.7968 11.2748 42.894 11.2991 42.967C11.3235 43.0399 11.3478 43.1129 11.3964 43.1615C11.445 43.2101 11.518 43.2345 11.5909 43.2345C11.6396 43.2345 11.6882 43.2345 11.7125 43.2101C11.7612 43.1858 11.7855 43.1615 11.8098 43.1129C11.8341 43.0642 11.8827 42.9913 11.9314 42.9183C11.98 42.8454 12.0287 42.7238 12.0773 42.6265C12.2232 42.3347 12.3448 42.0673 12.4907 41.8484C12.6123 41.6296 12.7582 41.435 12.9041 41.2891C13.05 41.1432 13.1959 41.046 13.3904 40.973C13.5606 40.9 13.7795 40.8757 13.9983 40.8757C14.3631 40.9 14.7035 40.9973 14.9467 41.1919C15.2142 41.3864 15.4087 41.6539 15.5303 41.9943C15.6032 42.3591 15.6519 42.7724 15.6519 43.2345Z" fill="black"/>
<path fill-rule="evenodd" clip-rule="evenodd" d="M10.4717 37.6662L15.9187 39.0766L16.3077 37.5689L14.3624 37.0583L14.5569 36.3531C14.6542 36.0126 14.6542 35.6479 14.6055 35.3318C14.5569 35.0156 14.411 34.7238 14.1922 34.4807C13.9733 34.2375 13.6572 34.0673 13.2681 33.97C12.879 33.8484 12.5386 33.8727 12.2468 33.97C11.9307 34.0916 11.6875 34.2618 11.493 34.5293C11.2985 34.7725 11.1526 35.0886 11.0553 35.4533L10.4717 37.6662ZM13.2675 36.5718L13.2189 36.7907L12.0274 36.4989L12.076 36.28C12.1003 36.1341 12.1489 36.0125 12.2219 35.8909C12.2948 35.7694 12.3678 35.6721 12.4894 35.5991C12.5866 35.5505 12.7325 35.5262 12.9028 35.5748C13.073 35.5991 13.1702 35.6721 13.2432 35.7937C13.2918 35.8909 13.3161 36.0125 13.3161 36.1584C13.3161 36.3043 13.2918 36.4502 13.2675 36.5718Z" fill="black"/>
<path fill-rule="evenodd" clip-rule="evenodd" d="M12.708 30.7113L17.6686 33.3375L18.4225 31.9758L16.696 31.0761L19.1277 30.614L20.0274 28.8875L17.2796 29.5441C17.3039 29.2766 17.2796 29.0334 17.2066 28.8146C17.1337 28.5957 17.0121 28.3769 16.8662 28.2067C16.7203 28.0121 16.5258 27.8662 16.2826 27.7447C15.9421 27.5744 15.626 27.5015 15.3099 27.5258C15.0181 27.5501 14.7263 27.6717 14.4588 27.8662C14.1913 28.0608 13.9725 28.3283 13.7779 28.693L12.708 30.7113ZM15.6752 30.2734L15.5536 30.4922L14.4836 29.9086L14.6052 29.6898C14.7268 29.4223 14.8727 29.2521 15.0429 29.1791C15.1888 29.1062 15.3591 29.1062 15.5536 29.2034C15.6509 29.2521 15.7481 29.3493 15.7968 29.4466C15.8454 29.5439 15.8697 29.6655 15.8454 29.8114C15.8211 29.9573 15.7724 30.1032 15.6752 30.2734Z" fill="black"/>
<path fill-rule="evenodd" clip-rule="evenodd" d="M21.6583 26.6749C21.9987 26.529 22.3149 26.2859 22.5823 25.9941C22.8498 25.7023 23.0444 25.3375 23.1659 24.9971C23.2875 24.6566 23.3362 24.2676 23.3118 23.9028C23.2875 23.5137 23.2146 23.149 23.0444 22.8086C22.8741 22.4681 22.631 22.152 22.3392 21.8845C22.0474 21.617 21.7069 21.4225 21.3422 21.3009C20.9774 21.1793 20.5884 21.1307 20.2236 21.155C19.8345 21.1793 19.4698 21.2766 19.1294 21.4225C18.7889 21.5684 18.4728 21.8116 18.2053 22.1034C17.9378 22.4195 17.7433 22.7356 17.6217 23.1004C17.5001 23.4408 17.4515 23.8299 17.4758 24.1946C17.5001 24.5837 17.5731 24.9484 17.7433 25.2889C17.9135 25.6293 18.1567 25.9454 18.4485 26.2129C18.7403 26.4804 19.0807 26.6749 19.4455 26.7965C19.8102 26.9181 20.1993 26.9667 20.564 26.9424C20.9531 26.9181 21.3179 26.8451 21.6583 26.6749ZM21.7791 24.5838C21.7304 24.754 21.6332 24.8999 21.5116 25.0458C21.39 25.1917 21.2441 25.289 21.0982 25.3376C20.9523 25.4106 20.7821 25.4349 20.6119 25.4349C20.4416 25.4349 20.2714 25.3863 20.1012 25.3133C19.931 25.2404 19.7608 25.1188 19.5906 24.9729C19.4203 24.827 19.2988 24.6811 19.2015 24.5108C19.1042 24.3649 19.0556 24.1947 19.0313 24.0245C19.007 23.8543 19.0313 23.7084 19.0799 23.5382C19.1285 23.368 19.2258 23.2221 19.3474 23.0762C19.469 22.9303 19.6149 22.833 19.7608 22.76C19.9067 22.6871 20.0769 22.6628 20.2471 22.6628C20.4173 22.6628 20.5875 22.7114 20.7578 22.7844C20.928 22.8573 21.0982 22.9789 21.2684 23.1248C21.4386 23.2707 21.5602 23.4166 21.6575 23.5868C21.7548 23.757 21.8034 23.9272 21.8277 24.0975C21.852 24.2677 21.8277 24.4136 21.7791 24.5838Z" fill="black"/>
<path d="M28.1506 21.2037C27.7858 21.4468 27.4211 21.617 27.0077 21.7143C26.5943 21.8116 26.2052 21.8359 25.7919 21.7873C25.4028 21.7386 25.0137 21.617 24.6733 21.4225C24.3328 21.228 24.041 20.9605 23.8222 20.6444C23.6033 20.3039 23.4574 19.9635 23.3845 19.5744C23.3359 19.1854 23.3359 18.7963 23.4331 18.4072C23.5304 18.0182 23.7006 17.6534 23.9195 17.313C24.1626 16.9725 24.4544 16.6807 24.7949 16.4132C25.0867 16.2187 25.3785 16.0728 25.6946 15.9512C26.0107 15.854 26.3025 15.781 26.57 15.781L26.7645 17.1914C26.6186 17.1914 26.4241 17.2157 26.2539 17.2886C26.0837 17.3616 25.8891 17.4346 25.7189 17.5561C25.5244 17.6777 25.3785 17.8479 25.2569 18.0182C25.1353 18.1884 25.038 18.3829 24.9894 18.5774C24.9408 18.772 24.9164 18.9665 24.9651 19.161C24.9894 19.3556 25.0623 19.5258 25.1839 19.696C25.3055 19.8662 25.4514 19.9878 25.6216 20.0851C25.7919 20.1824 25.9864 20.231 26.1809 20.2553C26.3755 20.2796 26.5943 20.2553 26.7888 20.2067C27.0077 20.158 27.2022 20.0608 27.3968 19.9149C27.567 19.7933 27.7129 19.6717 27.8345 19.5015C27.956 19.3556 28.0533 19.1854 28.102 19.0395L29.3664 19.7203C29.2692 19.9392 29.1233 20.2067 28.9044 20.4498C28.7099 20.766 28.4424 21.0091 28.1506 21.2037Z" fill="black"/>
<path d="M31.0445 19.3314L28.9775 14.1033L30.4122 13.544L31.2147 15.5866L32.0901 12.8874L33.8166 12.2065L32.7223 15.4893L36.2483 17.2888L34.2786 18.0669L31.6524 16.6808L32.4792 18.7721L31.0445 19.3314Z" fill="black"/>
<path d="M37.683 17.0694L36.8076 11.5252L40.1633 10.9902L40.3579 12.279L38.5098 12.5708L38.6314 13.3976L40.4065 13.1301L40.601 14.4189L38.8259 14.6864L38.9475 15.5132L40.7956 15.2214L40.9901 16.5102L37.683 17.0694Z" fill="black"/>
<path d="M43.8587 16.4374L43.9803 12.1333L42.7158 12.109L42.7401 10.7959L46.7767 10.8932L46.7524 12.2063L45.4879 12.182L45.3664 16.486L43.8587 16.4374Z" fill="black"/>
<path fill-rule="evenodd" clip-rule="evenodd" d="M53.0757 12.0364L51.252 17.3374L52.9541 17.9454C53.3432 18.067 53.708 18.1399 54.097 18.1156C54.4861 18.0913 54.8265 17.994 55.167 17.8481C55.5074 17.7022 55.7992 17.4833 56.0424 17.2159C56.2855 16.9484 56.4801 16.6079 56.6017 16.2432C56.7232 15.8784 56.7719 15.4894 56.7476 15.1246C56.7232 14.7599 56.626 14.4194 56.4558 14.079C56.2855 13.7386 56.0667 13.4468 55.7749 13.2036C55.4831 12.9361 55.1426 12.7416 54.7536 12.62L53.0757 12.0364ZM53.1971 16.5834L53.1484 16.559L54.1454 13.7869L54.194 13.8112C54.3886 13.8842 54.5588 13.9815 54.7047 14.103C54.8263 14.2246 54.9479 14.3705 55.0208 14.5407C55.0938 14.711 55.1424 14.8812 55.1424 15.0757C55.1424 15.2703 55.1181 15.4648 55.0451 15.6593C54.9722 15.8782 54.8749 16.0484 54.7533 16.1943C54.6317 16.3402 54.4858 16.4618 54.3156 16.5347C54.1454 16.632 53.9752 16.6806 53.7807 16.6806C53.5861 16.6806 53.3916 16.6563 53.1971 16.5834Z" fill="black"/>
<path fill-rule="evenodd" clip-rule="evenodd" d="M58.4983 20.2795C58.7171 20.5956 58.9846 20.8631 59.325 21.0819C59.6655 21.3008 60.0059 21.4467 60.395 21.4953C60.784 21.5683 61.1488 21.544 61.5135 21.471C61.8783 21.3981 62.2187 21.2522 62.5349 21.0333C62.851 20.8144 63.1185 20.547 63.3373 20.2065C63.5562 19.8661 63.6777 19.5257 63.7507 19.1366C63.8236 18.7475 63.7993 18.3828 63.7264 18.018C63.6534 17.6533 63.5075 17.3128 63.2887 16.9967C63.0698 16.6806 62.8023 16.4131 62.4619 16.1942C62.1215 15.9754 61.7567 15.8538 61.392 15.7809C61.0029 15.7079 60.6381 15.7322 60.2734 15.8052C59.9086 15.8781 59.5682 16.024 59.2521 16.2429C58.936 16.4617 58.6685 16.7292 58.4496 17.0697C58.2308 17.4101 58.1092 17.7505 58.0362 18.1396C57.9633 18.5287 57.9876 18.8934 58.0606 19.2582C58.1335 19.6229 58.2794 19.9634 58.4983 20.2795ZM60.5899 20.0606C60.4197 20.0363 60.2738 19.9633 60.1036 19.866C59.9449 19.7753 59.8707 19.6635 59.7826 19.5305C59.7762 19.5209 59.7697 19.5111 59.7632 19.5013C59.6659 19.3554 59.6173 19.2095 59.593 19.0393C59.593 18.8691 59.593 18.6988 59.6416 18.5043C59.6902 18.3098 59.7632 18.1396 59.8848 17.945C59.982 17.7505 60.1279 17.6046 60.2738 17.483C60.4197 17.3857 60.5656 17.2885 60.7358 17.2398C60.8817 17.1912 61.052 17.1669 61.2222 17.1912C61.3924 17.2155 61.5626 17.2885 61.7085 17.3857C61.8544 17.483 61.976 17.6046 62.0733 17.7505C62.1705 17.8964 62.2192 18.0423 62.2435 18.2125C62.2435 18.3827 62.2435 18.5529 62.1949 18.7475C62.1462 18.942 62.0733 19.1122 61.9517 19.3068C61.8301 19.5013 61.6842 19.6472 61.5383 19.7688C61.3924 19.866 61.2465 19.9633 61.0763 20.012C60.9304 20.0606 60.7602 20.0849 60.5899 20.0606Z" fill="black"/>
<path d="M64.9422 25.7996C64.6504 25.4835 64.4072 25.1431 64.237 24.754C64.0668 24.3649 63.9938 23.9759 63.9695 23.5625C63.9452 23.1491 64.0181 22.7843 64.1397 22.4196C64.2613 22.0548 64.4802 21.7387 64.772 21.4469C65.0638 21.1794 65.4042 20.9606 65.7689 20.839C66.1337 20.7174 66.5228 20.6688 66.9362 20.6931C67.3252 20.7174 67.7143 20.8147 68.1034 21.0092C68.4924 21.1794 68.8329 21.4226 69.1247 21.7387C69.3678 21.9819 69.5624 22.2737 69.7326 22.5655C69.8785 22.8573 70.0001 23.1491 70.0487 23.3923L68.687 23.8056C68.6627 23.6597 68.614 23.4895 68.5168 23.3193C68.4195 23.1491 68.2979 22.9789 68.1763 22.833C68.0061 22.6628 67.8359 22.5412 67.6413 22.4439C67.4468 22.3466 67.2523 22.298 67.0577 22.2737C66.8632 22.2494 66.6687 22.2737 66.4741 22.3223C66.2796 22.371 66.1094 22.4925 65.9635 22.6141C65.8176 22.76 65.696 22.9302 65.6474 23.1005C65.5744 23.295 65.5501 23.4652 65.5744 23.6841C65.5744 23.8786 65.6474 24.0731 65.7203 24.2677C65.8176 24.4622 65.9392 24.6324 66.0851 24.8026C66.231 24.9485 66.3769 25.0701 66.5471 25.1674C66.7173 25.2647 66.8875 25.3376 67.0334 25.3619L66.5714 26.7237C66.3282 26.675 66.0608 26.5534 65.7689 26.4075C65.4528 26.2616 65.1853 26.0671 64.9422 25.7996Z" fill="black"/>
</svg>
