<svg width="121" height="124" viewBox="0 0 121 124" fill="none" xmlns="http://www.w3.org/2000/svg">
<path d="M115.023 41.7177L113.399 42.3403L114.034 43.9958L115.677 43.3294L115.023 41.7177ZM118.248 40.4097L118.902 42.0214L120.485 41.3794L119.872 39.7852L118.248 40.4097ZM117.874 84.3866L119.486 85.0386L120.137 83.43L118.53 82.7757L117.874 84.3866ZM114.651 83.0745L115.307 81.4637L113.692 80.8062L113.039 82.4227L114.651 83.0745ZM62.2551 3.68556C30.1134 3.68556 4.02442 29.7746 4.02442 61.9162H7.50296C7.50296 31.6957 32.0346 7.16409 62.2551 7.16409V3.68556ZM116.647 41.095C108.264 19.2292 87.0653 3.68556 62.2551 3.68556V7.16409C85.576 7.16409 105.514 21.7737 113.399 42.3403L116.647 41.095ZM115.677 43.3294L118.902 42.0214L117.595 38.7979L114.37 40.1059L115.677 43.3294ZM62.2551 3.68556C87.0353 3.68556 108.223 19.1936 116.625 41.0341L119.872 39.7852C110.97 16.6473 88.5231 0.207021 62.2551 0.207021V3.68556ZM4.02442 61.9162C4.02442 29.7746 30.1134 3.68556 62.2551 3.68556V0.207021C28.1923 0.207021 0.545888 27.8534 0.545888 61.9162H4.02442ZM62.2551 120.147C30.1134 120.147 4.02442 94.0579 4.02442 61.9162H0.545888C0.545888 95.9791 28.1923 123.625 62.2551 123.625V120.147ZM116.261 83.7345C107.624 105.094 86.6857 120.147 62.2551 120.147V123.625C88.1507 123.625 110.335 107.667 119.486 85.0386L116.261 83.7345ZM118.53 82.7757L115.307 81.4637L113.995 84.6854L117.218 85.9975L118.53 82.7757ZM62.2551 120.147C86.6947 120.147 107.631 105.084 116.264 83.7263L113.039 82.4227C104.919 102.511 85.2294 116.668 62.2551 116.668V120.147ZM4.02442 61.9162C4.02442 94.0579 30.1134 120.147 62.2551 120.147V116.668C32.0346 116.668 7.50296 92.1368 7.50296 61.9162H4.02442Z" fill="white"/>
<circle cx="62.2555" cy="61.9162" r="30.4372" stroke="white" stroke-width="3.47854"/>
<path d="M90.5703 73.2563L116.277 83.9007" stroke="white" stroke-width="3.47854"/>
<path d="M34.2539 69.9517L47.8202 56.4897L50.603 59.2726L62.3257 47.4456L78.6748 64.0382L82.0142 61.0118L91.5106 70.6126L89.7713 73.0476L81.8055 65.5339L78.64 68.4907L62.3257 52.1416L50.6378 63.7599L47.9246 61.0466L35.3323 73.3954L34.2539 69.9517Z" fill="white"/>
<path d="M37.209 76.526L48.1664 65.4294L44.7226 73.3953L62.1153 56.1765V66.1251L58.4976 69.395L64.4111 66.786L78.4992 80.8741L76.8295 73.3953L85.1432 82.022C66.22 95.6231 49.5926 97.0145 37.209 76.526Z" fill="white"/>
<path d="M95.3371 84.8403L101.564 89.919L98.433 93.7454L96.972 92.5627L98.9896 90.0929L99.0591 90.7191L97.459 89.3972L98.0851 89.3276L96.2067 91.6235L94.7457 90.4408L96.6242 88.1449L96.6937 88.7711L93.9805 86.5448L95.3371 84.8403Z" fill="white"/>
<path fill-rule="evenodd" clip-rule="evenodd" d="M95.3022 96.8759L90.2931 90.6145L88.519 92.0755L90.2583 94.2322L86.7797 93.4321L84.623 95.1714L88.6234 95.8671C88.4494 96.1802 88.3451 96.528 88.3103 96.8411C88.2755 97.1542 88.3103 97.502 88.4147 97.8151C88.519 98.1281 88.6929 98.4412 88.9364 98.7543C89.2843 99.1717 89.6669 99.45 90.0843 99.5891C90.5018 99.7283 90.954 99.7283 91.4062 99.6239C91.8584 99.5196 92.3106 99.2761 92.7628 98.9282L95.3022 96.8759ZM91.1626 95.7628L91.4409 95.5541L92.554 96.9107L92.2758 97.1195C91.9627 97.3977 91.6844 97.5369 91.4061 97.5369C91.1626 97.5717 90.9191 97.4673 90.7452 97.2238C90.6061 97.0847 90.5365 96.9455 90.5365 96.7716C90.5365 96.6325 90.5713 96.4585 90.6756 96.2846C90.78 96.1107 90.9539 95.9368 91.1626 95.7628Z" fill="white"/>
<path fill-rule="evenodd" clip-rule="evenodd" d="M81.2492 97.0848C80.6926 97.0848 80.1708 97.2239 79.649 97.4674C79.1273 97.7109 78.6751 98.024 78.3272 98.4414C77.9446 98.8241 77.6663 99.2763 77.4923 99.798C77.3184 100.285 77.2141 100.807 77.2489 101.363C77.2489 101.92 77.388 102.442 77.6315 102.964C77.875 103.485 78.1881 103.903 78.6055 104.285C78.9881 104.668 79.4751 104.946 79.9621 105.12C80.4491 105.294 80.9709 105.398 81.5275 105.364C82.084 105.364 82.6058 105.225 83.1276 104.981C83.6494 104.738 84.1016 104.425 84.4494 104.007C84.8321 103.624 85.1103 103.172 85.2843 102.65C85.4582 102.163 85.5626 101.642 85.5278 101.085C85.5278 100.529 85.3886 100.007 85.1451 99.485C84.9016 98.9632 84.5886 98.5458 84.1711 98.1631C83.7885 97.7805 83.3363 97.5022 82.8145 97.3283C82.3275 97.1544 81.8057 97.05 81.2492 97.0848ZM79.9268 99.7982C80.066 99.6242 80.2747 99.4503 80.5182 99.346C80.7617 99.2068 81.0052 99.172 81.2487 99.172C81.4922 99.172 81.7009 99.2068 81.9444 99.3112C82.1879 99.4155 82.3618 99.5547 82.5705 99.7634C82.7792 99.9721 82.9184 100.216 83.0575 100.494C83.1966 100.772 83.2662 101.05 83.301 101.329C83.3358 101.607 83.3358 101.85 83.2662 102.094C83.1966 102.337 83.0923 102.546 82.9184 102.72C82.7792 102.894 82.5705 103.068 82.327 103.172C82.0835 103.277 81.84 103.346 81.5965 103.346C81.353 103.346 81.1443 103.311 80.9008 103.207C80.6573 103.103 80.4834 102.964 80.2747 102.755C80.066 102.546 79.9268 102.303 79.7877 102.024C79.6485 101.746 79.579 101.468 79.5442 101.19C79.5094 100.911 79.5094 100.668 79.579 100.424C79.6485 100.181 79.7529 99.9721 79.9268 99.7982Z" fill="white"/>
<path d="M73.4209 100.111L74.8819 108.007L72.7252 108.39L69.0032 104.529L69.8032 108.947L67.6465 109.329L66.1855 101.433L68.3422 101.05L72.0643 104.911L71.2642 100.494L73.4209 100.111Z" fill="white"/>
<path d="M62.5688 101.468L62.3948 107.625L64.2037 107.66L64.1689 109.538L58.3945 109.399L58.4293 107.52L60.2382 107.555L60.4121 101.398L62.5688 101.468Z" fill="white"/>
<path fill-rule="evenodd" clip-rule="evenodd" d="M49.4202 107.868L51.9595 100.25L49.8724 99.4848L49.0028 102.128L47.7853 98.7891L45.1416 97.9194L46.7069 101.641C46.3243 101.676 46.0112 101.781 45.6982 101.92C45.4199 102.094 45.1416 102.268 44.9329 102.546C44.6894 102.824 44.5155 103.137 44.4111 103.485C44.2372 104.007 44.2024 104.494 44.3067 104.911C44.4111 105.364 44.6198 105.746 44.9677 106.059C45.3155 106.372 45.7677 106.651 46.3243 106.824L49.4202 107.868ZM48.0986 103.798L48.4117 103.903L47.8899 105.572L47.5768 105.468C47.1594 105.329 46.8811 105.155 46.742 104.946C46.568 104.737 46.5333 104.494 46.6376 104.216C46.6724 104.042 46.7767 103.903 46.9159 103.798C47.055 103.694 47.1942 103.659 47.4029 103.659C47.6116 103.659 47.8203 103.694 48.0986 103.798Z" fill="white"/>
<path fill-rule="evenodd" clip-rule="evenodd" d="M37.21 102.685L44.3062 97.6066L42.2886 96.3891L41.1755 97.2587L38.6014 95.6586L38.8797 94.2672L36.8621 93.0149L35.4707 101.607L37.21 102.685ZM38.2526 97.6414L39.5397 98.4415L37.9048 99.6589L38.2526 97.6414Z" fill="white"/>
<path d="M35.2628 91.6233L29.4884 97.189L27.9579 95.6236L29.1406 90.371L25.9056 93.4669L24.375 91.9016L30.1494 86.3359L31.6799 87.9361L30.4972 93.1887L33.7323 90.0928L35.2628 91.6233Z" fill="white"/>
<path d="M26.7415 80.6309C27.0198 81.1179 27.1937 81.6397 27.2285 82.1615C27.2981 82.6833 27.2285 83.205 27.0893 83.692C26.9502 84.179 26.7067 84.666 26.3589 85.0835C26.011 85.5009 25.5936 85.8835 25.0718 86.1618C24.55 86.4401 24.0282 86.614 23.5065 86.6836C22.9847 86.7532 22.4281 86.7184 21.9411 86.5792C21.4193 86.4401 20.9671 86.1966 20.5149 85.8487C20.0627 85.5009 19.7148 85.0487 19.4018 84.5269C19.2626 84.2486 19.1235 83.9355 18.9844 83.6225C18.88 83.2746 18.7756 82.9268 18.7061 82.5789C18.6365 82.2311 18.6365 81.8484 18.6713 81.5006L20.6193 81.5701C20.5845 81.918 20.5845 82.2658 20.6888 82.6485C20.7932 83.0311 20.8975 83.3442 21.0367 83.5877C21.1758 83.866 21.3498 84.0747 21.5585 84.2138C21.7672 84.353 21.9759 84.4573 22.2194 84.4921C22.4629 84.5269 22.7064 84.5269 22.9847 84.4573C23.263 84.3878 23.5412 84.2834 23.8195 84.1095C24.1326 83.9355 24.4109 83.7268 24.5848 83.5181C24.7935 83.3094 24.9327 83.0659 25.037 82.8224C25.1414 82.5789 25.1761 82.3354 25.1414 82.1267C25.1414 81.8832 25.0718 81.6745 24.9327 81.431C24.8283 81.2571 24.7239 81.1179 24.5848 80.9788C24.4457 80.8396 24.3065 80.7701 24.1326 80.7005C23.9587 80.6309 23.8195 80.5961 23.6456 80.5961C23.4717 80.5961 23.3325 80.6309 23.1934 80.7005L23.9587 82.0571L22.5325 82.8572L20.6888 79.5526L22.0455 78.7873C22.4281 78.5786 22.8455 78.4742 23.263 78.4395C23.7152 78.4395 24.1326 78.509 24.5848 78.6482C25.0022 78.8221 25.4196 79.0308 25.8023 79.3787C26.1849 79.8309 26.498 80.2135 26.7415 80.6309Z" fill="white"/>
<path d="M23.8876 74.8569L16.1652 77.0832L14.8086 72.3872L16.6174 71.8654L17.3479 74.4395L18.4958 74.1264L17.8001 71.6567L19.609 71.1349L20.3047 73.6046L21.4526 73.2568L20.7221 70.6827L22.5309 70.1609L23.8876 74.8569Z" fill="white"/>
<path d="M21.9047 60.6989C21.9047 61.0467 21.8699 61.3946 21.8003 61.7077C21.7307 62.0207 21.6612 62.3338 21.5568 62.6121C21.4524 62.8904 21.3481 63.1339 21.2437 63.3426C21.1394 63.5513 21.0002 63.7252 20.8959 63.8644L19.1218 62.7164C19.2262 62.5773 19.3305 62.4034 19.4349 62.2294C19.5393 62.0555 19.6088 61.8816 19.7132 61.7077C19.7828 61.5337 19.8523 61.325 19.9219 61.1511C19.9567 60.9772 19.9915 60.7685 19.9915 60.5945C19.9915 60.4206 19.9915 60.2815 19.9567 60.1771C19.9219 60.0728 19.8523 59.9684 19.7828 59.8988C19.7132 59.8293 19.6088 59.7945 19.4697 59.7945C19.3305 59.7945 19.2262 59.8293 19.1566 59.864C19.0523 59.9336 18.9827 60.0032 18.8783 60.1423C18.774 60.2815 18.6696 60.4554 18.5653 60.6641C18.4609 60.8728 18.3218 61.1511 18.1826 61.4294C18.0783 61.6729 17.9391 61.8816 17.7652 62.0555C17.6261 62.2294 17.4521 62.4034 17.2782 62.5425C17.1043 62.6817 16.8956 62.7512 16.7216 62.8208C16.5129 62.8904 16.3042 62.9252 16.0607 62.8904C15.7476 62.8904 15.4346 62.786 15.1563 62.6469C14.878 62.5077 14.5997 62.299 14.391 62.0207C14.1475 61.7424 13.9736 61.4642 13.8692 61.0815C13.7301 60.7337 13.6953 60.3162 13.6953 59.8988C13.6953 59.6205 13.7301 59.3075 13.7997 58.9944C13.8692 58.6813 13.9736 58.3683 14.078 58.09C14.1823 57.8117 14.3214 57.5334 14.4606 57.3247L16.1651 58.2639C16.0607 58.4378 15.9564 58.6118 15.8868 58.8205C15.8172 58.9944 15.7476 59.2031 15.7129 59.377C15.6781 59.551 15.6433 59.7597 15.6433 59.8988C15.6433 60.0728 15.6433 60.2119 15.6781 60.3162C15.7129 60.4206 15.7476 60.525 15.8172 60.5945C15.8868 60.6641 15.9911 60.6989 16.0955 60.6989C16.1651 60.6989 16.2346 60.6989 16.2694 60.6641C16.339 60.6293 16.3738 60.5945 16.4086 60.525C16.4434 60.4554 16.5129 60.351 16.5825 60.2467C16.6521 60.1423 16.7216 59.9684 16.7912 59.8293C16.9999 59.4118 17.1738 59.0292 17.3826 58.7161C17.5565 58.4031 17.7652 58.1248 17.9739 57.9161C18.1826 57.7073 18.3913 57.5682 18.6696 57.4638C18.9131 57.3595 19.2262 57.3247 19.5393 57.3247C20.061 57.3595 20.548 57.4986 20.8959 57.7769C21.2785 58.0552 21.5568 58.4378 21.7307 58.9248C21.8351 59.4466 21.9047 60.038 21.9047 60.6989Z" fill="white"/>
<path fill-rule="evenodd" clip-rule="evenodd" d="M14.4941 52.7333L22.2861 54.7508L22.8426 52.5941L20.0598 51.8636L20.3381 50.8549C20.4772 50.3679 20.4772 49.8461 20.4077 49.3939C20.3381 48.9417 20.1294 48.5242 19.8163 48.1764C19.5032 47.8285 19.051 47.585 18.4945 47.4459C17.9379 47.272 17.4509 47.3067 17.0335 47.4459C16.5813 47.6198 16.2334 47.8633 15.9551 48.2459C15.6768 48.5938 15.4681 49.046 15.329 49.5678L14.4941 52.7333ZM18.4941 51.1678L18.4246 51.4809L16.7201 51.0635L16.7897 50.7504C16.8244 50.5417 16.894 50.3678 16.9984 50.1939C17.1027 50.0199 17.2071 49.8808 17.381 49.7764C17.5202 49.7069 17.7289 49.6721 17.9724 49.7416C18.2159 49.7764 18.355 49.8808 18.4594 50.0547C18.5289 50.1939 18.5637 50.3678 18.5637 50.5765C18.5637 50.7852 18.5289 50.9939 18.4941 51.1678Z" fill="white"/>
<path fill-rule="evenodd" clip-rule="evenodd" d="M17.6953 42.7848L24.7915 46.5417L25.8699 44.5937L23.4001 43.3066L26.8786 42.6457L28.1657 40.1759L24.235 41.1151C24.2697 40.7325 24.235 40.3846 24.1306 40.0716C24.0262 39.7585 23.8523 39.4454 23.6436 39.2019C23.4349 38.9237 23.1566 38.715 22.8088 38.541C22.3218 38.2975 21.8696 38.1932 21.4173 38.228C20.9999 38.2627 20.5825 38.4367 20.1999 38.715C19.8172 38.9932 19.5042 39.3759 19.2259 39.8977L17.6953 42.7848ZM21.9384 42.1586L21.7645 42.4717L20.2339 41.6368L20.4079 41.3238C20.5818 40.9411 20.7905 40.6976 21.034 40.5933C21.2427 40.4889 21.4862 40.4889 21.7645 40.6281C21.9036 40.6976 22.0428 40.8368 22.1124 40.9759C22.1819 41.1151 22.2167 41.289 22.1819 41.4977C22.1471 41.7064 22.0776 41.9151 21.9384 42.1586Z" fill="white"/>
<path fill-rule="evenodd" clip-rule="evenodd" d="M30.4976 37.0104C30.9846 36.8017 31.4368 36.4539 31.8195 36.0365C32.2021 35.619 32.4804 35.0972 32.6543 34.6103C32.8283 34.1233 32.8978 33.5667 32.863 33.0449C32.8283 32.4883 32.7239 31.9666 32.4804 31.4796C32.2369 30.9926 31.8891 30.5404 31.4716 30.1577C31.0542 29.7751 30.5672 29.4968 30.0454 29.3229C29.5236 29.149 28.9671 29.0794 28.4453 29.1142C27.8887 29.149 27.367 29.2881 26.88 29.4968C26.393 29.7055 25.9408 30.0534 25.5581 30.4708C25.1755 30.923 24.8972 31.3752 24.7233 31.897C24.5493 32.384 24.4798 32.9406 24.5146 33.4623C24.5493 34.0189 24.6537 34.5407 24.8972 35.0277C25.1407 35.5147 25.4885 35.9669 25.906 36.3495C26.3234 36.7322 26.8104 37.0104 27.3322 37.1844C27.854 37.3583 28.4105 37.4279 28.9323 37.3931C29.4889 37.3583 30.0106 37.2539 30.4976 37.0104ZM30.6704 34.0193C30.6008 34.2628 30.4617 34.4715 30.2877 34.6802C30.1138 34.8889 29.9051 35.0281 29.6964 35.0976C29.4877 35.202 29.2442 35.2368 29.0007 35.2368C28.7572 35.2368 28.5137 35.1672 28.2702 35.0628C28.0267 34.9585 27.7832 34.7846 27.5397 34.5759C27.2962 34.3671 27.1223 34.1584 26.9831 33.9149C26.844 33.7062 26.7744 33.4627 26.7396 33.2192C26.7049 32.9757 26.7396 32.767 26.8092 32.5235C26.8788 32.28 27.0179 32.0713 27.1919 31.8626C27.3658 31.6539 27.5745 31.5147 27.7832 31.4104C27.9919 31.306 28.2354 31.2712 28.4789 31.2712C28.7224 31.2712 28.9659 31.3408 29.2094 31.4452C29.4529 31.5495 29.6964 31.7235 29.9399 31.9322C30.1834 32.1409 30.3573 32.3496 30.4965 32.5931C30.6356 32.8366 30.7052 33.0801 30.74 33.3236C30.7747 33.5671 30.74 33.7758 30.6704 34.0193Z" fill="white"/>
<path d="M39.7836 29.1836C39.2618 29.5315 38.74 29.775 38.1486 29.9141C37.5573 30.0533 37.0007 30.0881 36.4094 30.0185C35.8528 29.9489 35.2962 29.775 34.8092 29.4967C34.3222 29.2184 33.9048 28.8358 33.5918 28.3836C33.2787 27.8966 33.07 27.4096 32.9656 26.853C32.896 26.2965 32.896 25.7399 33.0352 25.1833C33.1743 24.6268 33.4178 24.105 33.7309 23.618C34.0788 23.131 34.4962 22.7136 34.9832 22.3309C35.4006 22.0527 35.818 21.8439 36.2702 21.67C36.7224 21.5309 37.1399 21.4265 37.5225 21.4265L37.8008 23.4441C37.5921 23.4441 37.3138 23.4789 37.0703 23.5832C36.8268 23.6876 36.5485 23.7919 36.305 23.9658C36.0267 24.1398 35.818 24.3833 35.6441 24.6268C35.4702 24.8703 35.331 25.1485 35.2615 25.4268C35.1919 25.7051 35.1571 25.9834 35.2267 26.2617C35.2615 26.54 35.3658 26.7835 35.5397 27.027C35.7137 27.2705 35.9224 27.4444 36.1659 27.5835C36.4094 27.7227 36.6877 27.7922 36.9659 27.827C37.2442 27.8618 37.5573 27.827 37.8356 27.7574C38.1486 27.6879 38.4269 27.5487 38.7052 27.34C38.9487 27.1661 39.1574 26.9922 39.3313 26.7487C39.5053 26.54 39.6444 26.2965 39.714 26.0878L41.5228 27.0617C41.3837 27.3748 41.175 27.7574 40.8619 28.1053C40.5836 28.5575 40.201 28.9054 39.7836 29.1836Z" fill="white"/>
<path d="M43.9236 26.5053L40.9668 19.0265L43.0191 18.2264L44.1671 21.1484L45.4193 17.2872L47.8891 16.3132L46.3237 21.0093L51.3676 23.5834L48.55 24.6965L44.7932 22.7137L45.9759 25.7053L43.9236 26.5053Z" fill="white"/>
<path d="M53.4202 23.2698L52.168 15.3388L56.9683 14.5735L57.2466 16.4171L54.6029 16.8345L54.7769 18.0172L57.3162 17.6346L57.5945 19.4782L55.0552 19.8609L55.2291 21.0436L57.8728 20.6261L58.1511 22.4698L53.4202 23.2698Z" fill="white"/>
<path d="M62.256 22.3656L62.4299 16.2086L60.6211 16.1738L60.6559 14.2954L66.4302 14.4346L66.3955 16.313L64.5866 16.2782L64.4127 22.4352L62.256 22.3656Z" fill="white"/>
<path fill-rule="evenodd" clip-rule="evenodd" d="M75.4409 16.0698L72.832 23.653L75.267 24.5227C75.8236 24.6966 76.3454 24.801 76.9019 24.7662C77.4585 24.7314 77.9455 24.5922 78.4325 24.3835C78.9195 24.1748 79.3369 23.8617 79.6847 23.4791C80.0326 23.0965 80.3109 22.6095 80.4848 22.0877C80.6587 21.5659 80.7283 21.0093 80.6935 20.4876C80.6587 19.9658 80.5196 19.4788 80.2761 18.9918C80.0326 18.5048 79.7195 18.0874 79.3021 17.7395C78.8847 17.3569 78.3977 17.0786 77.8411 16.9047L75.4409 16.0698ZM75.6152 22.5746L75.5456 22.5398L76.9718 18.5743L77.0414 18.6091C77.3196 18.7134 77.5631 18.8526 77.7719 19.0265C77.9458 19.2004 78.1197 19.4092 78.2241 19.6527C78.3284 19.8962 78.398 20.1396 78.398 20.4179C78.398 20.6962 78.3632 20.9745 78.2589 21.2528C78.1545 21.5658 78.0154 21.8093 77.8414 22.0181C77.6675 22.2268 77.4588 22.4007 77.2153 22.5051C76.9718 22.6442 76.7283 22.7138 76.45 22.7138C76.1717 22.7138 75.8934 22.679 75.6152 22.5746Z" fill="white"/>
<path fill-rule="evenodd" clip-rule="evenodd" d="M83.1966 27.8618C83.5097 28.314 83.8923 28.6967 84.3793 29.0097C84.8663 29.3228 85.3533 29.5315 85.9098 29.6011C86.4664 29.7055 86.9882 29.6707 87.51 29.5663C88.0318 29.462 88.5187 29.2532 88.971 28.9402C89.4232 28.6271 89.8058 28.2445 90.1189 27.7575C90.4319 27.2705 90.6059 26.7835 90.7102 26.2269C90.8146 25.6703 90.7798 25.1486 90.6754 24.6268C90.5711 24.105 90.3624 23.618 90.0493 23.1658C89.7362 22.7136 89.3536 22.331 88.8666 22.0179C88.3796 21.7048 87.8578 21.5309 87.336 21.4265C86.7795 21.3222 86.2577 21.357 85.7359 21.4613C85.2141 21.5657 84.7271 21.7744 84.2749 22.0875C83.8227 22.4005 83.4401 22.7832 83.127 23.2702C82.8139 23.7572 82.64 24.2441 82.5357 24.8007C82.4313 25.3573 82.4661 25.8791 82.5705 26.4008C82.6748 26.9226 82.8835 27.4096 83.1966 27.8618ZM86.1886 27.5487C85.9451 27.5139 85.7364 27.4096 85.4929 27.2704C85.2659 27.1407 85.1598 26.9807 85.0337 26.7904C85.0245 26.7767 85.0153 26.7627 85.0059 26.7487C84.8668 26.54 84.7972 26.3312 84.7624 26.0877C84.7624 25.8442 84.7624 25.6007 84.832 25.3225C84.9016 25.0442 85.0059 24.8007 85.1799 24.5224C85.319 24.2441 85.5277 24.0354 85.7364 23.8615C85.9451 23.7223 86.1539 23.5832 86.3974 23.5136C86.6061 23.4441 86.8496 23.4093 87.0931 23.4441C87.3366 23.4788 87.5801 23.5832 87.7888 23.7223C87.9975 23.8615 88.1714 24.0354 88.3106 24.2441C88.4497 24.4528 88.5193 24.6615 88.554 24.905V24.905C88.554 25.1485 88.554 25.392 88.4845 25.6703C88.4149 25.9486 88.3106 26.1921 88.1366 26.4704C87.9627 26.7487 87.754 26.9574 87.5453 27.1313L87.5453 27.1313C87.3366 27.2704 87.1278 27.4096 86.8844 27.4792C86.6756 27.5487 86.4321 27.5835 86.1886 27.5487Z" fill="white"/>
<path d="M92.4137 35.7582C91.9963 35.306 91.6484 34.819 91.4049 34.2624C91.1614 33.7059 91.0571 33.1493 91.0223 32.5579C90.9875 31.9666 91.0919 31.4448 91.2658 30.923C91.4397 30.4013 91.7528 29.949 92.1702 29.5316C92.5876 29.149 93.0746 28.8359 93.5964 28.662C94.1182 28.4881 94.6748 28.4185 95.2661 28.4533C95.8227 28.4881 96.3792 28.6272 96.9358 28.9055C97.4924 29.149 97.9794 29.4968 98.3968 29.949C98.7446 30.2969 99.0229 30.7143 99.2664 31.1317C99.4751 31.5492 99.6491 31.9666 99.7186 32.3145L97.7707 32.9058C97.7359 32.6971 97.6663 32.4536 97.5272 32.2101C97.388 31.9666 97.2141 31.7231 97.0402 31.5144C96.7967 31.2709 96.5532 31.097 96.2749 30.9578C95.9966 30.8187 95.7183 30.7491 95.44 30.7143C95.1617 30.6795 94.8835 30.7143 94.6052 30.7839C94.3269 30.8535 94.0834 31.0274 93.8747 31.2013C93.666 31.41 93.4921 31.6535 93.4225 31.897C93.3181 32.1753 93.2833 32.4188 93.3181 32.7319C93.3181 33.0102 93.4225 33.2884 93.5268 33.5667C93.666 33.845 93.8399 34.0885 94.0486 34.332C94.2573 34.5407 94.466 34.7146 94.7095 34.8538C94.953 34.9929 95.1965 35.0973 95.4052 35.1321L94.7443 37.08C94.3965 37.0105 94.0138 36.8365 93.5964 36.6278C93.1442 36.4191 92.7616 36.1408 92.4137 35.7582Z" fill="white"/>
</svg>
