<svg width="121" height="124" viewBox="0 0 121 124" fill="none" xmlns="http://www.w3.org/2000/svg">
<path d="M115.023 41.7177L113.399 42.3403L114.034 43.9958L115.677 43.3294L115.023 41.7177ZM118.248 40.4097L118.902 42.0214L120.485 41.3794L119.872 39.7852L118.248 40.4097ZM117.874 84.3866L119.486 85.0386L120.137 83.43L118.53 82.7757L117.874 84.3866ZM114.651 83.0745L115.307 81.4637L113.692 80.8062L113.039 82.4227L114.651 83.0745ZM62.2551 3.68556C30.1134 3.68556 4.02442 29.7746 4.02442 61.9162H7.50296C7.50296 31.6957 32.0346 7.16409 62.2551 7.16409V3.68556ZM116.647 41.095C108.264 19.2292 87.0653 3.68556 62.2551 3.68556V7.16409C85.576 7.16409 105.514 21.7737 113.399 42.3403L116.647 41.095ZM115.677 43.3294L118.902 42.0214L117.595 38.7979L114.37 40.1059L115.677 43.3294ZM62.2551 3.68556C87.0353 3.68556 108.223 19.1936 116.625 41.0341L119.872 39.7852C110.97 16.6473 88.5231 0.207021 62.2551 0.207021V3.68556ZM4.02442 61.9162C4.02442 29.7746 30.1134 3.68556 62.2551 3.68556V0.207021C28.1923 0.207021 0.545888 27.8534 0.545888 61.9162H4.02442ZM62.2551 120.147C30.1134 120.147 4.02442 94.0579 4.02442 61.9162H0.545888C0.545888 95.9791 28.1923 123.625 62.2551 123.625V120.147ZM116.261 83.7345C107.624 105.094 86.6857 120.147 62.2551 120.147V123.625C88.1507 123.625 110.335 107.667 119.486 85.0386L116.261 83.7345ZM118.53 82.7757L115.307 81.4637L113.995 84.6854L117.218 85.9975L118.53 82.7757ZM62.2551 120.147C86.6947 120.147 107.631 105.084 116.264 83.7263L113.039 82.4227C104.919 102.511 85.2294 116.668 62.2551 116.668V120.147ZM4.02442 61.9162C4.02442 94.0579 30.1134 120.147 62.2551 120.147V116.668C32.0346 116.668 7.50296 92.1368 7.50296 61.9162H4.02442Z" fill="black"/>
<circle cx="62.2555" cy="61.9162" r="30.4372" stroke="black" stroke-width="3.47854"/>
<path d="M90.5703 73.2563L116.277 83.9007" stroke="black" stroke-width="3.47854"/>
<path d="M34.2529 69.9517L47.8192 56.4897L50.602 59.2726L62.3247 47.4456L78.6738 64.0382L82.0132 61.0118L91.5096 70.6126L89.7704 73.0476L81.8045 65.5339L78.639 68.4907L62.3247 52.1416L50.6368 63.7599L47.9236 61.0466L35.3313 73.3954L34.2529 69.9517Z" fill="black"/>
<path d="M37.209 76.526L48.1664 65.4294L44.7226 73.3953L62.1153 56.1765V66.1251L58.4976 69.395L64.4111 66.786L78.4992 80.8741L76.8295 73.3953L85.1432 82.022C66.22 95.6231 49.5926 97.0145 37.209 76.526Z" fill="black"/>
<path d="M95.3371 84.8403L101.564 89.919L98.433 93.7454L96.972 92.5627L98.9896 90.0929L99.0591 90.7191L97.459 89.3972L98.0851 89.3276L96.2067 91.6235L94.7457 90.4408L96.6242 88.1449L96.6937 88.7711L93.9805 86.5448L95.3371 84.8403Z" fill="black"/>
<path fill-rule="evenodd" clip-rule="evenodd" d="M95.3022 96.8759L90.2931 90.6145L88.519 92.0755L90.2583 94.2322L86.7797 93.4321L84.623 95.1714L88.6234 95.8671C88.4494 96.1802 88.3451 96.528 88.3103 96.8411C88.2755 97.1542 88.3103 97.502 88.4147 97.8151C88.519 98.1281 88.6929 98.4412 88.9364 98.7543C89.2843 99.1717 89.6669 99.45 90.0843 99.5891C90.5018 99.7283 90.954 99.7283 91.4062 99.6239C91.8584 99.5196 92.3106 99.2761 92.7628 98.9282L95.3022 96.8759ZM91.1626 95.7628L91.4409 95.5541L92.554 96.9107L92.2758 97.1195C91.9627 97.3977 91.6844 97.5369 91.4061 97.5369C91.1626 97.5717 90.9191 97.4673 90.7452 97.2238C90.6061 97.0847 90.5365 96.9455 90.5365 96.7716C90.5365 96.6325 90.5713 96.4585 90.6756 96.2846C90.78 96.1107 90.9539 95.9368 91.1626 95.7628Z" fill="black"/>
<path fill-rule="evenodd" clip-rule="evenodd" d="M81.2492 97.0848C80.6926 97.0848 80.1708 97.2239 79.649 97.4674C79.1273 97.7109 78.6751 98.024 78.3272 98.4414C77.9446 98.8241 77.6663 99.2763 77.4923 99.798C77.3184 100.285 77.2141 100.807 77.2489 101.363C77.2489 101.92 77.388 102.442 77.6315 102.964C77.875 103.485 78.1881 103.903 78.6055 104.285C78.9881 104.668 79.4751 104.946 79.9621 105.12C80.4491 105.294 80.9709 105.398 81.5275 105.364C82.084 105.364 82.6058 105.225 83.1276 104.981C83.6494 104.738 84.1016 104.425 84.4494 104.007C84.8321 103.624 85.1103 103.172 85.2843 102.65C85.4582 102.163 85.5626 101.642 85.5278 101.085C85.5278 100.529 85.3886 100.007 85.1451 99.485C84.9016 98.9632 84.5886 98.5458 84.1711 98.1631C83.7885 97.7805 83.3363 97.5022 82.8145 97.3283C82.3275 97.1544 81.8057 97.05 81.2492 97.0848ZM79.9268 99.7982C80.066 99.6242 80.2747 99.4503 80.5182 99.346C80.7617 99.2068 81.0052 99.172 81.2487 99.172C81.4922 99.172 81.7009 99.2068 81.9444 99.3112C82.1879 99.4155 82.3618 99.5547 82.5705 99.7634C82.7792 99.9721 82.9184 100.216 83.0575 100.494C83.1966 100.772 83.2662 101.05 83.301 101.329C83.3358 101.607 83.3358 101.85 83.2662 102.094C83.1966 102.337 83.0923 102.546 82.9184 102.72C82.7792 102.894 82.5705 103.068 82.327 103.172C82.0835 103.277 81.84 103.346 81.5965 103.346C81.353 103.346 81.1443 103.311 80.9008 103.207C80.6573 103.103 80.4834 102.964 80.2747 102.755C80.066 102.546 79.9268 102.303 79.7877 102.024C79.6485 101.746 79.579 101.468 79.5442 101.19C79.5094 100.911 79.5094 100.668 79.579 100.424C79.6485 100.181 79.7529 99.9721 79.9268 99.7982Z" fill="black"/>
<path d="M73.4229 100.111L74.8838 108.007L72.7271 108.39L69.0051 104.529L69.8052 108.947L67.6485 109.329L66.1875 101.433L68.3442 101.05L72.0662 104.911L71.2662 100.494L73.4229 100.111Z" fill="black"/>
<path d="M62.5698 101.468L62.3958 107.625L64.2047 107.66L64.1699 109.538L58.3955 109.399L58.4303 107.52L60.2391 107.555L60.4131 101.398L62.5698 101.468Z" fill="black"/>
<path fill-rule="evenodd" clip-rule="evenodd" d="M49.4202 107.868L51.9595 100.25L49.8724 99.4848L49.0028 102.128L47.7853 98.7891L45.1416 97.9194L46.7069 101.641C46.3243 101.676 46.0112 101.781 45.6982 101.92C45.4199 102.094 45.1416 102.268 44.9329 102.546C44.6894 102.824 44.5155 103.137 44.4111 103.485C44.2372 104.007 44.2024 104.494 44.3067 104.911C44.4111 105.364 44.6198 105.746 44.9677 106.059C45.3155 106.372 45.7677 106.651 46.3243 106.824L49.4202 107.868ZM48.0986 103.798L48.4117 103.903L47.8899 105.572L47.5768 105.468C47.1594 105.329 46.8811 105.155 46.742 104.946C46.568 104.737 46.5333 104.494 46.6376 104.216C46.6724 104.042 46.7767 103.903 46.9159 103.798C47.055 103.694 47.1942 103.659 47.4029 103.659C47.6116 103.659 47.8203 103.694 48.0986 103.798Z" fill="black"/>
<path fill-rule="evenodd" clip-rule="evenodd" d="M37.2109 102.685L44.3072 97.6066L42.2896 96.3891L41.1765 97.2587L38.6024 95.6586L38.8806 94.2672L36.8631 93.0149L35.4717 101.607L37.2109 102.685ZM38.2536 97.6414L39.5406 98.4415L37.9057 99.6589L38.2536 97.6414Z" fill="black"/>
<path d="M35.2628 91.6233L29.4884 97.189L27.9579 95.6236L29.1406 90.371L25.9056 93.4669L24.375 91.9016L30.1494 86.3359L31.6799 87.9361L30.4972 93.1887L33.7323 90.0928L35.2628 91.6233Z" fill="black"/>
<path d="M26.7415 80.6309C27.0198 81.1179 27.1937 81.6397 27.2285 82.1615C27.2981 82.6833 27.2285 83.205 27.0893 83.692C26.9502 84.179 26.7067 84.666 26.3589 85.0835C26.011 85.5009 25.5936 85.8835 25.0718 86.1618C24.55 86.4401 24.0282 86.614 23.5065 86.6836C22.9847 86.7532 22.4281 86.7184 21.9411 86.5792C21.4193 86.4401 20.9671 86.1966 20.5149 85.8487C20.0627 85.5009 19.7148 85.0487 19.4018 84.5269C19.2626 84.2486 19.1235 83.9355 18.9844 83.6225C18.88 83.2746 18.7756 82.9268 18.7061 82.5789C18.6365 82.2311 18.6365 81.8484 18.6713 81.5006L20.6193 81.5701C20.5845 81.918 20.5845 82.2658 20.6888 82.6485C20.7932 83.0311 20.8975 83.3442 21.0367 83.5877C21.1758 83.866 21.3498 84.0747 21.5585 84.2138C21.7672 84.353 21.9759 84.4573 22.2194 84.4921C22.4629 84.5269 22.7064 84.5269 22.9847 84.4573C23.263 84.3878 23.5412 84.2834 23.8195 84.1095C24.1326 83.9355 24.4109 83.7268 24.5848 83.5181C24.7935 83.3094 24.9327 83.0659 25.037 82.8224C25.1414 82.5789 25.1761 82.3354 25.1414 82.1267C25.1414 81.8832 25.0718 81.6745 24.9327 81.431C24.8283 81.2571 24.7239 81.1179 24.5848 80.9788C24.4457 80.8396 24.3065 80.7701 24.1326 80.7005C23.9587 80.6309 23.8195 80.5961 23.6456 80.5961C23.4717 80.5961 23.3325 80.6309 23.1934 80.7005L23.9587 82.0571L22.5325 82.8572L20.6888 79.5526L22.0455 78.7873C22.4281 78.5786 22.8455 78.4742 23.263 78.4395C23.7152 78.4395 24.1326 78.509 24.5848 78.6482C25.0022 78.8221 25.4196 79.0308 25.8023 79.3787C26.1849 79.8309 26.498 80.2135 26.7415 80.6309Z" fill="black"/>
<path d="M23.8885 74.8569L16.1662 77.0832L14.8096 72.3872L16.6184 71.8654L17.3489 74.4395L18.4968 74.1264L17.8011 71.6567L19.61 71.1349L20.3057 73.6046L21.4536 73.2568L20.7231 70.6827L22.5319 70.1609L23.8885 74.8569Z" fill="black"/>
<path d="M21.9056 60.6989C21.9056 61.0467 21.8708 61.3946 21.8013 61.7077C21.7317 62.0207 21.6621 62.3338 21.5578 62.6121C21.4534 62.8904 21.3491 63.1339 21.2447 63.3426C21.1404 63.5513 21.0012 63.7252 20.8969 63.8644L19.1228 62.7164C19.2272 62.5773 19.3315 62.4034 19.4359 62.2294C19.5402 62.0555 19.6098 61.8816 19.7142 61.7077C19.7837 61.5337 19.8533 61.325 19.9229 61.1511C19.9577 60.9772 19.9924 60.7685 19.9924 60.5945C19.9924 60.4206 19.9924 60.2815 19.9577 60.1771C19.9229 60.0728 19.8533 59.9684 19.7837 59.8988C19.7142 59.8293 19.6098 59.7945 19.4707 59.7945C19.3315 59.7945 19.2272 59.8293 19.1576 59.864C19.0532 59.9336 18.9837 60.0032 18.8793 60.1423C18.775 60.2815 18.6706 60.4554 18.5662 60.6641C18.4619 60.8728 18.3227 61.1511 18.1836 61.4294C18.0792 61.6729 17.9401 61.8816 17.7662 62.0555C17.627 62.2294 17.4531 62.4034 17.2792 62.5425C17.1053 62.6817 16.8965 62.7512 16.7226 62.8208C16.5139 62.8904 16.3052 62.9252 16.0617 62.8904C15.7486 62.8904 15.4356 62.786 15.1573 62.6469C14.879 62.5077 14.6007 62.299 14.392 62.0207C14.1485 61.7424 13.9746 61.4642 13.8702 61.0815C13.7311 60.7337 13.6963 60.3162 13.6963 59.8988C13.6963 59.6205 13.7311 59.3075 13.8006 58.9944C13.8702 58.6813 13.9746 58.3683 14.0789 58.09C14.1833 57.8117 14.3224 57.5334 14.4616 57.3247L16.166 58.2639C16.0617 58.4378 15.9573 58.6118 15.8878 58.8205C15.8182 58.9944 15.7486 59.2031 15.7138 59.377C15.6791 59.551 15.6443 59.7597 15.6443 59.8988C15.6443 60.0728 15.6443 60.2119 15.6791 60.3162C15.7138 60.4206 15.7486 60.525 15.8182 60.5945C15.8878 60.6641 15.9921 60.6989 16.0965 60.6989C16.166 60.6989 16.2356 60.6989 16.2704 60.6641C16.34 60.6293 16.3748 60.5945 16.4095 60.525C16.4443 60.4554 16.5139 60.351 16.5835 60.2467C16.653 60.1423 16.7226 59.9684 16.7922 59.8293C17.0009 59.4118 17.1748 59.0292 17.3835 58.7161C17.5575 58.4031 17.7662 58.1248 17.9749 57.9161C18.1836 57.7073 18.3923 57.5682 18.6706 57.4638C18.9141 57.3595 19.2272 57.3247 19.5402 57.3247C20.062 57.3595 20.549 57.4986 20.8969 57.7769C21.2795 58.0552 21.5578 58.4378 21.7317 58.9248C21.8361 59.4466 21.9056 60.038 21.9056 60.6989Z" fill="black"/>
<path fill-rule="evenodd" clip-rule="evenodd" d="M14.4961 52.7333L22.288 54.7508L22.8446 52.5941L20.0618 51.8636L20.34 50.8549C20.4792 50.3679 20.4792 49.8461 20.4096 49.3939C20.34 48.9417 20.1313 48.5242 19.8183 48.1764C19.5052 47.8285 19.053 47.585 18.4964 47.4459C17.9398 47.272 17.4528 47.3067 17.0354 47.4459C16.5832 47.6198 16.2354 47.8633 15.9571 48.2459C15.6788 48.5938 15.4701 49.046 15.3309 49.5678L14.4961 52.7333ZM18.4961 51.1678L18.4265 51.4809L16.722 51.0635L16.7916 50.7504C16.8264 50.5417 16.896 50.3678 17.0003 50.1939C17.1047 50.0199 17.209 49.8808 17.383 49.7764C17.5221 49.7069 17.7308 49.6721 17.9743 49.7416C18.2178 49.7764 18.357 49.8808 18.4613 50.0547C18.5309 50.1939 18.5657 50.3678 18.5657 50.5765C18.5657 50.7852 18.5309 50.9939 18.4961 51.1678Z" fill="black"/>
<path fill-rule="evenodd" clip-rule="evenodd" d="M17.6963 42.7848L24.7925 46.5417L25.8709 44.5937L23.4011 43.3066L26.8796 42.6457L28.1667 40.1759L24.2359 41.1151C24.2707 40.7325 24.2359 40.3846 24.1316 40.0716C24.0272 39.7585 23.8533 39.4454 23.6446 39.2019C23.4359 38.9237 23.1576 38.715 22.8097 38.541C22.3227 38.2975 21.8705 38.1932 21.4183 38.228C21.0009 38.2627 20.5835 38.4367 20.2008 38.715C19.8182 38.9932 19.5051 39.3759 19.2268 39.8977L17.6963 42.7848ZM21.9394 42.1586L21.7655 42.4717L20.2349 41.6368L20.4088 41.3238C20.5828 40.9411 20.7915 40.6976 21.035 40.5933C21.2437 40.4889 21.4872 40.4889 21.7655 40.6281C21.9046 40.6976 22.0438 40.8368 22.1133 40.9759C22.1829 41.1151 22.2177 41.289 22.1829 41.4977C22.1481 41.7064 22.0785 41.9151 21.9394 42.1586Z" fill="black"/>
<path fill-rule="evenodd" clip-rule="evenodd" d="M30.4986 37.0104C30.9856 36.8017 31.4378 36.4539 31.8205 36.0365C32.2031 35.619 32.4814 35.0972 32.6553 34.6103C32.8292 34.1233 32.8988 33.5667 32.864 33.0449C32.8292 32.4883 32.7249 31.9666 32.4814 31.4796C32.2379 30.9926 31.89 30.5404 31.4726 30.1577C31.0552 29.7751 30.5682 29.4968 30.0464 29.3229C29.5246 29.149 28.9681 29.0794 28.4463 29.1142C27.8897 29.149 27.3679 29.2881 26.8809 29.4968C26.3939 29.7055 25.9417 30.0534 25.5591 30.4708C25.1765 30.923 24.8982 31.3752 24.7242 31.897C24.5503 32.384 24.4807 32.9406 24.5155 33.4623C24.5503 34.0189 24.6547 34.5407 24.8982 35.0277C25.1417 35.5147 25.4895 35.9669 25.9069 36.3495C26.3244 36.7322 26.8114 37.0104 27.3331 37.1844C27.8549 37.3583 28.4115 37.4279 28.9333 37.3931C29.4898 37.3583 30.0116 37.2539 30.4986 37.0104ZM30.6714 34.0193C30.6018 34.2628 30.4627 34.4715 30.2887 34.6802C30.1148 34.8889 29.9061 35.0281 29.6974 35.0976C29.4887 35.202 29.2452 35.2368 29.0017 35.2368C28.7582 35.2368 28.5147 35.1672 28.2712 35.0628C28.0277 34.9585 27.7842 34.7846 27.5407 34.5759C27.2972 34.3671 27.1233 34.1584 26.9841 33.9149C26.845 33.7062 26.7754 33.4627 26.7406 33.2192C26.7058 32.9757 26.7406 32.767 26.8102 32.5235C26.8798 32.28 27.0189 32.0713 27.1928 31.8626C27.3668 31.6539 27.5755 31.5147 27.7842 31.4104C27.9929 31.306 28.2364 31.2712 28.4799 31.2712C28.7234 31.2712 28.9669 31.3408 29.2104 31.4452C29.4539 31.5495 29.6974 31.7235 29.9409 31.9322C30.1844 32.1409 30.3583 32.3496 30.4974 32.5931C30.6366 32.8366 30.7061 33.0801 30.7409 33.3236C30.7757 33.5671 30.7409 33.7758 30.6714 34.0193Z" fill="black"/>
<path d="M39.7845 29.1836C39.2627 29.5315 38.741 29.775 38.1496 29.9141C37.5583 30.0533 37.0017 30.0881 36.4103 30.0185C35.8538 29.9489 35.2972 29.775 34.8102 29.4967C34.3232 29.2184 33.9058 28.8358 33.5927 28.3836C33.2797 27.8966 33.071 27.4096 32.9666 26.853C32.897 26.2965 32.897 25.7399 33.0362 25.1833C33.1753 24.6268 33.4188 24.105 33.7319 23.618C34.0797 23.131 34.4972 22.7136 34.9841 22.3309C35.4016 22.0527 35.819 21.8439 36.2712 21.67C36.7234 21.5309 37.1408 21.4265 37.5235 21.4265L37.8018 23.4441C37.593 23.4441 37.3148 23.4789 37.0713 23.5832C36.8278 23.6876 36.5495 23.7919 36.306 23.9658C36.0277 24.1398 35.819 24.3833 35.6451 24.6268C35.4711 24.8703 35.332 25.1485 35.2624 25.4268C35.1929 25.7051 35.1581 25.9834 35.2276 26.2617C35.2624 26.54 35.3668 26.7835 35.5407 27.027C35.7146 27.2705 35.9234 27.4444 36.1668 27.5835C36.4103 27.7227 36.6886 27.7922 36.9669 27.827C37.2452 27.8618 37.5583 27.827 37.8365 27.7574C38.1496 27.6879 38.4279 27.5487 38.7062 27.34C38.9497 27.1661 39.1584 26.9922 39.3323 26.7487C39.5062 26.54 39.6454 26.2965 39.715 26.0878L41.5238 27.0617C41.3847 27.3748 41.1759 27.7574 40.8629 28.1053C40.5846 28.5575 40.202 28.9054 39.7845 29.1836Z" fill="black"/>
<path d="M43.9255 26.5053L40.9688 19.0265L43.0211 18.2264L44.169 21.1484L45.4213 17.2872L47.891 16.3132L46.3257 21.0093L51.3696 23.5834L48.552 24.6965L44.7951 22.7137L45.9778 25.7053L43.9255 26.5053Z" fill="black"/>
<path d="M53.4212 23.2698L52.1689 15.3388L56.9693 14.5735L57.2476 16.4171L54.6039 16.8345L54.7778 18.0172L57.3172 17.6346L57.5955 19.4782L55.0561 19.8609L55.2301 21.0436L57.8737 20.6261L58.152 22.4698L53.4212 23.2698Z" fill="black"/>
<path d="M62.256 22.3656L62.4299 16.2086L60.6211 16.1738L60.6559 14.2954L66.4302 14.4346L66.3955 16.313L64.5866 16.2782L64.4127 22.4352L62.256 22.3656Z" fill="black"/>
<path fill-rule="evenodd" clip-rule="evenodd" d="M75.4409 16.0698L72.832 23.653L75.267 24.5227C75.8236 24.6966 76.3454 24.801 76.9019 24.7662C77.4585 24.7314 77.9455 24.5922 78.4325 24.3835C78.9195 24.1748 79.3369 23.8617 79.6847 23.4791C80.0326 23.0965 80.3109 22.6095 80.4848 22.0877C80.6587 21.5659 80.7283 21.0093 80.6935 20.4876C80.6587 19.9658 80.5196 19.4788 80.2761 18.9918C80.0326 18.5048 79.7195 18.0874 79.3021 17.7395C78.8847 17.3569 78.3977 17.0786 77.8411 16.9047L75.4409 16.0698ZM75.6152 22.5746L75.5456 22.5398L76.9718 18.5743L77.0414 18.6091C77.3196 18.7134 77.5631 18.8526 77.7719 19.0265C77.9458 19.2004 78.1197 19.4092 78.2241 19.6527C78.3284 19.8962 78.398 20.1396 78.398 20.4179C78.398 20.6962 78.3632 20.9745 78.2589 21.2528C78.1545 21.5658 78.0154 21.8093 77.8414 22.0181C77.6675 22.2268 77.4588 22.4007 77.2153 22.5051C76.9718 22.6442 76.7283 22.7138 76.45 22.7138C76.1717 22.7138 75.8934 22.679 75.6152 22.5746Z" fill="black"/>
<path fill-rule="evenodd" clip-rule="evenodd" d="M83.1985 27.8618C83.5116 28.314 83.8942 28.6967 84.3812 29.0097C84.8682 29.3228 85.3552 29.5315 85.9118 29.6011C86.4684 29.7055 86.9901 29.6707 87.5119 29.5663C88.0337 29.462 88.5207 29.2532 88.9729 28.9402C89.4251 28.6271 89.8078 28.2445 90.1208 27.7575C90.4339 27.2705 90.6078 26.7835 90.7122 26.2269C90.8165 25.6703 90.7818 25.1486 90.6774 24.6268C90.573 24.105 90.3643 23.618 90.0513 23.1658C89.7382 22.7136 89.3556 22.331 88.8686 22.0179C88.3816 21.7048 87.8598 21.5309 87.338 21.4265C86.7814 21.3222 86.2597 21.357 85.7379 21.4613C85.2161 21.5657 84.7291 21.7744 84.2769 22.0875C83.8247 22.4005 83.442 22.7832 83.129 23.2702C82.8159 23.7572 82.642 24.2441 82.5376 24.8007C82.4333 25.3573 82.468 25.8791 82.5724 26.4008C82.6768 26.9226 82.8855 27.4096 83.1985 27.8618ZM86.1906 27.5487C85.9471 27.5139 85.7384 27.4096 85.4949 27.2704C85.2678 27.1407 85.1617 26.9807 85.0356 26.7904C85.0265 26.7767 85.0173 26.7627 85.0079 26.7487C84.8688 26.54 84.7992 26.3312 84.7644 26.0877C84.7644 25.8442 84.7644 25.6007 84.834 25.3225C84.9035 25.0442 85.0079 24.8007 85.1818 24.5224C85.321 24.2441 85.5297 24.0354 85.7384 23.8615C85.9471 23.7223 86.1558 23.5832 86.3993 23.5136C86.608 23.4441 86.8515 23.4093 87.095 23.4441C87.3385 23.4788 87.582 23.5832 87.7907 23.7223C87.9994 23.8615 88.1734 24.0354 88.3125 24.2441C88.4516 24.4528 88.5212 24.6615 88.556 24.905V24.905C88.556 25.1485 88.556 25.392 88.4864 25.6703C88.4169 25.9486 88.3125 26.1921 88.1386 26.4704C87.9647 26.7487 87.7559 26.9574 87.5472 27.1313L87.5472 27.1313C87.3385 27.2704 87.1298 27.4096 86.8863 27.4792C86.6776 27.5487 86.4341 27.5835 86.1906 27.5487Z" fill="black"/>
<path d="M92.4147 35.7582C91.9973 35.306 91.6494 34.819 91.4059 34.2624C91.1624 33.7059 91.0581 33.1493 91.0233 32.5579C90.9885 31.9666 91.0928 31.4448 91.2668 30.923C91.4407 30.4013 91.7538 29.949 92.1712 29.5316C92.5886 29.149 93.0756 28.8359 93.5974 28.662C94.1192 28.4881 94.6757 28.4185 95.2671 28.4533C95.8236 28.4881 96.3802 28.6272 96.9368 28.9055C97.4933 29.149 97.9803 29.4968 98.3978 29.949C98.7456 30.2969 99.0239 30.7143 99.2674 31.1317C99.4761 31.5492 99.65 31.9666 99.7196 32.3145L97.7716 32.9058C97.7368 32.6971 97.6673 32.4536 97.5281 32.2101C97.389 31.9666 97.2151 31.7231 97.0411 31.5144C96.7976 31.2709 96.5541 31.097 96.2759 30.9578C95.9976 30.8187 95.7193 30.7491 95.441 30.7143C95.1627 30.6795 94.8844 30.7143 94.6062 30.7839C94.3279 30.8535 94.0844 31.0274 93.8757 31.2013C93.667 31.41 93.493 31.6535 93.4235 31.897C93.3191 32.1753 93.2843 32.4188 93.3191 32.7319C93.3191 33.0102 93.4235 33.2884 93.5278 33.5667C93.667 33.845 93.8409 34.0885 94.0496 34.332C94.2583 34.5407 94.467 34.7146 94.7105 34.8538C94.954 34.9929 95.1975 35.0973 95.4062 35.1321L94.7453 37.08C94.3974 37.0105 94.0148 36.8365 93.5974 36.6278C93.1452 36.4191 92.7625 36.1408 92.4147 35.7582Z" fill="black"/>
</svg>
